<svg id="visual" viewBox="0 0 900 600" width="900" height="600" xmlns="http://www.w3.org/2000/svg" xmlns:xlink="http://www.w3.org/1999/xlink" version="1.1"><path d="M0 61L50 67C100 73 200 85 300 87C400 89 500 81 600 72C700 63 800 53 850 48L900 43L900 0L850 0C800 0 700 0 600 0C500 0 400 0 300 0C200 0 100 0 50 0L0 0Z" fill="#440965"></path><path d="M0 115L50 121C100 127 200 139 300 147C400 155 500 159 600 148C700 137 800 111 850 98L900 85L900 41L850 46C800 51 700 61 600 70C500 79 400 87 300 85C200 83 100 71 50 65L0 59Z" fill="#510677"></path><path d="M0 343L50 355C100 367 200 391 300 382C400 373 500 331 600 299C700 267 800 245 850 234L900 223L900 83L850 96C800 109 700 135 600 146C500 157 400 153 300 145C200 137 100 125 50 119L0 113Z" fill="#5f0089"></path><path d="M0 469L50 471C100 473 200 477 300 473C400 469 500 457 600 436C700 415 800 385 850 370L900 355L900 221L850 232C800 243 700 265 600 297C500 329 400 371 300 380C200 389 100 365 50 353L0 341Z" fill="#72199c"></path><path d="M0 601L50 601C100 601 200 601 300 601C400 601 500 601 600 601C700 601 800 601 850 601L900 601L900 353L850 368C800 383 700 413 600 434C500 455 400 467 300 471C200 475 100 471 50 469L0 467Z" fill="#852caf"></path></svg>