<svg id="visual" viewBox="0 0 900 600" width="900" height="600" xmlns="http://www.w3.org/2000/svg" xmlns:xlink="http://www.w3.org/1999/xlink" version="1.1"><rect x="0" y="0" width="900" height="600" fill="#7b6dd6"></rect><path d="M0 488L21.5 477C43 466 86 444 128.8 441.5C171.7 439 214.3 456 257.2 471.2C300 486.3 343 499.7 385.8 484.5C428.7 469.3 471.3 425.7 514.2 422.8C557 420 600 458 642.8 462.8C685.7 467.7 728.3 439.3 771.2 437.7C814 436 857 461 878.5 473.5L900 486L900 601L878.5 601C857 601 814 601 771.2 601C728.3 601 685.7 601 642.8 601C600 601 557 601 514.2 601C471.3 601 428.7 601 385.8 601C343 601 300 601 257.2 601C214.3 601 171.7 601 128.8 601C86 601 43 601 21.5 601L0 601Z" fill="#6600FF" stroke-linecap="round" stroke-linejoin="miter"></path></svg>